<svg width="807" height="1080" viewBox="0 0 807 1080" fill="none" xmlns="http://www.w3.org/2000/svg">
<g clip-path="url(#clip0_2_1880)">
<path d="M807 -118H0V1317H807V-118Z" fill="white"/>
<g clip-path="url(#clip1_2_1880)">
<path d="M40.35 43.4315C62.6347 43.4315 80.7 25.362 80.7 3.07214C80.7 -19.2177 62.6347 -37.2872 40.35 -37.2872C18.0653 -37.2872 0 -19.2177 0 3.07214C0 25.362 18.0653 43.4315 40.35 43.4315Z" fill="#7678ED"/>
</g>
<g clip-path="url(#clip2_2_1880)">
<path d="M121.044 43.4315C113.064 43.4315 105.262 41.0645 98.6268 36.6297C91.9912 32.195 86.8195 25.8917 83.7655 18.517C80.7115 11.1423 79.9124 3.02738 81.4693 -4.80157C83.0262 -12.6305 86.8692 -19.8219 92.5123 -25.4662C98.1553 -31.1106 105.345 -34.9544 113.172 -36.5117C120.999 -38.069 129.112 -37.2697 136.485 -34.215C143.858 -31.1603 150.16 -25.9874 154.594 -19.3503C159.028 -12.7132 161.394 -4.91018 161.394 3.07215V43.4315H121.044Z" fill="#F7B801"/>
</g>
<g clip-path="url(#clip3_2_1880)">
<path d="M161.408 3.07215C161.408 -4.91018 163.775 -12.7132 168.208 -19.3503C172.642 -25.9874 178.944 -31.1603 186.317 -34.215C193.69 -37.2697 201.803 -38.069 209.63 -36.5117C217.457 -34.9544 224.647 -31.1106 230.29 -25.4662C235.933 -19.8219 239.776 -12.6305 241.333 -4.80157C242.89 3.02738 242.091 11.1423 239.037 18.517C235.983 25.8917 230.811 32.195 224.175 36.6297C217.54 41.0645 209.738 43.4315 201.758 43.4315H161.408V3.07215Z" fill="#F7B801"/>
</g>
<g clip-path="url(#clip4_2_1880)">
<path d="M363.146 43.4315C385.431 43.4315 403.496 25.362 403.496 3.07214C403.496 -19.2177 385.431 -37.2872 363.146 -37.2872C340.861 -37.2872 322.796 -19.2177 322.796 3.07214C322.796 25.362 340.861 43.4315 363.146 43.4315Z" fill="#7678ED"/>
</g>
<g clip-path="url(#clip5_2_1880)">
<path d="M645.598 3.07207C645.598 11.0544 643.232 18.8575 638.798 25.4945C634.364 32.1316 628.062 37.3046 620.689 40.3593C613.316 43.414 605.203 44.2132 597.376 42.6559C589.549 41.0987 582.359 37.2548 576.716 31.6105C571.073 25.9661 567.23 18.7747 565.673 10.9458C564.116 3.11684 564.915 -4.99808 567.969 -12.3728C571.023 -19.7475 576.195 -26.0508 582.831 -30.4855C589.466 -34.9203 597.268 -37.2873 605.248 -37.2873H645.598V3.07207Z" fill="#F7B801"/>
</g>
<g clip-path="url(#clip6_2_1880)">
<path d="M645.592 3.07214C645.592 25.362 663.657 43.4315 685.942 43.4315C708.227 43.4315 726.292 25.362 726.292 3.07214C726.292 -19.2177 708.227 -37.2872 685.942 -37.2872C663.657 -37.2872 645.592 -19.2177 645.592 3.07214Z" fill="#7678ED"/>
</g>
<g clip-path="url(#clip7_2_1880)">
<path d="M766.656 43.4315C758.676 43.4315 750.874 41.0645 744.239 36.6297C737.603 32.195 732.432 25.8917 729.378 18.517C726.324 11.1423 725.525 3.02738 727.081 -4.80157C728.638 -12.6305 732.481 -19.8219 738.124 -25.4662C743.767 -31.1106 750.957 -34.9544 758.784 -36.5117C766.611 -38.069 774.724 -37.2697 782.097 -34.215C789.47 -31.1603 795.772 -25.9874 800.206 -19.3503C804.64 -12.7132 807.006 -4.91018 807.006 3.07215V43.4315H766.656Z" fill="#F7B801"/>
</g>
<g clip-path="url(#clip8_2_1880)">
<path d="M80.7 43.4455C69.9985 43.4455 59.7353 47.6977 52.1682 55.2665C44.6012 62.8354 40.35 73.1009 40.35 83.8049C40.35 94.5089 44.6012 104.774 52.1682 112.343C59.7353 119.912 69.9985 124.164 80.7 124.164L80.7 43.4455Z" fill="#F18701"/>
</g>
<g clip-path="url(#clip9_2_1880)">
<path d="M80.694 124.164C91.3955 124.164 101.659 119.912 109.226 112.343C116.793 104.774 121.044 94.5088 121.044 83.8049C121.044 73.1009 116.793 62.8353 109.226 55.2665C101.659 47.6976 91.3955 43.4455 80.694 43.4455V124.164Z" fill="#F18701"/>
</g>
<g clip-path="url(#clip10_2_1880)">
<path d="M80.7 164.518C80.7 142.228 62.6347 124.158 40.35 124.158C18.0653 124.158 0 142.228 0 164.518C0 186.808 18.0653 204.877 40.35 204.877C62.6347 204.877 80.7 186.808 80.7 164.518Z" fill="#7678ED"/>
</g>
<g clip-path="url(#clip11_2_1880)">
<path d="M242.108 83.8049C242.108 94.5089 237.857 104.774 230.29 112.343C222.723 119.912 212.46 124.164 201.758 124.164L161.408 124.164L161.408 43.4455L201.758 43.4455C212.46 43.4455 222.723 47.6977 230.29 55.2665C237.857 62.8354 242.108 73.1009 242.108 83.8049Z" fill="#3D348B"/>
</g>
<g clip-path="url(#clip12_2_1880)">
<path d="M322.802 43.4455C312.101 43.4455 301.837 47.6977 294.27 55.2665C286.703 62.8354 282.452 73.1009 282.452 83.8049C282.452 94.5089 286.703 104.774 294.27 112.343C301.837 119.912 312.101 124.164 322.802 124.164V43.4455Z" fill="#F18701"/>
</g>
<g clip-path="url(#clip13_2_1880)">
<path d="M322.796 43.4455C322.796 54.1495 327.047 64.4151 334.614 71.9839C342.181 79.5528 352.444 83.8049 363.146 83.8049C373.847 83.8049 384.111 79.5528 391.678 71.9839C399.245 64.4151 403.496 54.1495 403.496 43.4455L322.796 43.4455Z" fill="#F18701"/>
</g>
<g clip-path="url(#clip14_2_1880)">
<path d="M484.21 83.8049C484.21 94.5089 479.959 104.774 472.392 112.343C464.825 119.912 454.561 124.164 443.86 124.164L403.51 124.164V43.4455L443.86 43.4455C454.561 43.4455 464.825 47.6977 472.392 55.2665C479.959 62.8354 484.21 73.1009 484.21 83.8049Z" fill="#3D348B"/>
</g>
<g clip-path="url(#clip15_2_1880)">
<path d="M403.496 164.518C403.496 172.5 401.13 180.303 396.696 186.94C392.262 193.577 385.96 198.75 378.587 201.805C371.214 204.86 363.101 205.659 355.274 204.102C347.447 202.544 340.257 198.7 334.614 193.056C328.971 187.412 325.128 180.22 323.571 172.391C322.014 164.562 322.813 156.447 325.867 149.073C328.921 141.698 334.093 135.395 340.729 130.96C347.364 126.525 355.166 124.158 363.146 124.158H403.496V164.518Z" fill="#F7B801"/>
</g>
<g clip-path="url(#clip16_2_1880)">
<path d="M484.204 124.164C494.906 124.164 505.169 119.912 512.736 112.343C520.303 104.774 524.554 94.5088 524.554 83.8049C524.554 73.1009 520.303 62.8353 512.736 55.2665C505.169 47.6976 494.906 43.4455 484.204 43.4455V124.164Z" fill="#F18701"/>
</g>
<g clip-path="url(#clip17_2_1880)">
<path d="M564.898 83.8049C564.898 75.8226 567.265 68.0195 571.698 61.3824C576.132 54.7454 582.434 49.5724 589.807 46.5177C597.18 43.463 605.293 42.6637 613.12 44.221C620.947 45.7783 628.137 49.6221 633.78 55.2665C639.423 60.9109 643.266 68.1022 644.823 75.9312C646.38 83.7601 645.581 91.875 642.527 99.2497C639.473 106.624 634.301 112.928 627.665 117.362C621.03 121.797 613.228 124.164 605.248 124.164H564.898V83.8049Z" fill="#F7B801"/>
</g>
<g clip-path="url(#clip18_2_1880)">
<path d="M564.904 164.518C564.904 172.5 562.537 180.303 558.104 186.94C553.67 193.577 547.368 198.75 539.995 201.805C532.622 204.86 524.509 205.659 516.682 204.102C508.855 202.544 501.665 198.7 496.022 193.056C490.379 187.412 486.536 180.22 484.979 172.391C483.422 164.562 484.221 156.447 487.275 149.073C490.329 141.698 495.501 135.395 502.137 130.96C508.772 126.525 516.574 124.158 524.554 124.158H564.904V164.518Z" fill="#F7B801"/>
</g>
<g clip-path="url(#clip19_2_1880)">
<path d="M685.942 124.164C675.24 124.164 664.977 119.912 657.41 112.343C649.843 104.774 645.592 94.5088 645.592 83.8049V43.4455H726.292V83.8049C726.292 94.5088 722.041 104.774 714.474 112.343C706.907 119.912 696.643 124.164 685.942 124.164Z" fill="#3D348B"/>
</g>
<g clip-path="url(#clip20_2_1880)">
<path d="M807.006 124.164C807.006 113.46 802.755 103.195 795.188 95.6259C787.621 88.057 777.358 83.8049 766.656 83.8049C755.955 83.8049 745.691 88.057 738.124 95.6259C730.557 103.195 726.306 113.46 726.306 124.164H807.006Z" fill="#F18701"/>
</g>
<g clip-path="url(#clip21_2_1880)">
<path d="M685.942 124.158C696.643 124.158 706.907 128.41 714.474 135.979C722.041 143.548 726.292 153.814 726.292 164.518V204.877H645.592V164.518C645.592 153.814 649.843 143.548 657.41 135.979C664.977 128.41 675.241 124.158 685.942 124.158Z" fill="#3D348B"/>
</g>
<g clip-path="url(#clip22_2_1880)">
<path d="M766.656 204.877C758.676 204.877 750.874 202.51 744.239 198.075C737.603 193.64 732.432 187.337 729.378 179.962C726.324 172.588 725.525 164.473 727.081 156.644C728.638 148.815 732.481 141.624 738.124 135.979C743.767 130.335 750.957 126.491 758.784 124.934C766.611 123.376 774.724 124.176 782.097 127.23C789.47 130.285 795.772 135.458 800.206 142.095C804.64 148.732 807.006 156.535 807.006 164.518V204.877H766.656Z" fill="#F7B801"/>
</g>
<g clip-path="url(#clip23_2_1880)">
<path d="M80.694 245.23C80.694 237.248 83.0605 229.445 87.4942 222.808C91.9279 216.171 98.2297 210.998 105.603 207.943C112.976 204.888 121.089 204.089 128.916 205.646C136.743 207.204 143.933 211.048 149.576 216.692C155.219 222.336 159.062 229.528 160.619 237.357C162.176 245.186 161.376 253.301 158.323 260.675C155.269 268.05 150.097 274.353 143.461 278.788C136.826 283.223 129.024 285.59 121.044 285.59H80.694V245.23Z" fill="#F7B801"/>
</g>
<g clip-path="url(#clip24_2_1880)">
<path d="M7.62939e-06 325.963C7.62939e-06 315.259 4.25116 304.994 11.8183 297.425C19.3853 289.856 29.6485 285.604 40.35 285.604H80.7V366.323H40.35C29.6485 366.323 19.3853 362.07 11.8183 354.502C4.25116 346.933 7.62939e-06 336.667 7.62939e-06 325.963Z" fill="#3D348B"/>
</g>
<g clip-path="url(#clip25_2_1880)">
<path d="M201.758 285.604C209.738 285.604 217.54 287.971 224.175 292.406C230.811 296.84 235.983 303.144 239.037 310.518C242.091 317.893 242.89 326.008 241.333 333.837C239.776 341.666 235.933 348.857 230.29 354.502C224.647 360.146 217.457 363.99 209.63 365.547C201.803 367.104 193.69 366.305 186.317 363.25C178.944 360.196 172.642 355.023 168.208 348.386C163.775 341.749 161.408 333.945 161.408 325.963V285.604H201.758Z" fill="#F7B801"/>
</g>
<g clip-path="url(#clip26_2_1880)">
<path d="M403.51 285.59C414.211 285.59 424.475 281.338 432.042 273.769C439.609 266.2 443.86 255.934 443.86 245.23C443.86 234.526 439.609 224.261 432.042 216.692C424.475 209.123 414.211 204.871 403.51 204.871V285.59Z" fill="#F18701"/>
</g>
<g clip-path="url(#clip27_2_1880)">
<path d="M322.796 325.963C322.796 348.253 340.861 366.323 363.146 366.323C385.431 366.323 403.496 348.253 403.496 325.963C403.496 303.673 385.431 285.604 363.146 285.604C340.861 285.604 322.796 303.673 322.796 325.963Z" fill="#7678ED"/>
</g>
<g clip-path="url(#clip28_2_1880)">
<path d="M524.554 204.871C535.255 204.871 545.519 209.123 553.086 216.692C560.653 224.261 564.904 234.526 564.904 245.23V285.59H484.204V245.23C484.204 234.526 488.455 224.261 496.022 216.692C503.589 209.123 513.853 204.871 524.554 204.871Z" fill="#3D348B"/>
</g>
<g clip-path="url(#clip29_2_1880)">
<path d="M564.898 204.871C564.898 215.575 569.149 225.841 576.716 233.409C584.283 240.978 594.547 245.23 605.248 245.23C615.95 245.23 626.213 240.978 633.78 233.409C641.347 225.841 645.598 215.575 645.598 204.871H564.898Z" fill="#F18701"/>
</g>
<g clip-path="url(#clip30_2_1880)">
<path d="M564.904 325.963C564.904 336.667 560.653 346.933 553.086 354.502C545.519 362.07 535.255 366.323 524.554 366.323H484.204V285.604H524.554C535.255 285.604 545.519 289.856 553.086 297.425C560.653 304.994 564.904 315.259 564.904 325.963Z" fill="#3D348B"/>
</g>
<g clip-path="url(#clip31_2_1880)">
<path d="M726.292 204.871C715.59 204.871 705.327 209.123 697.76 216.692C690.193 224.261 685.942 234.526 685.942 245.23C685.942 255.934 690.193 266.2 697.76 273.769C705.327 281.338 715.59 285.59 726.292 285.59V204.871Z" fill="#F18701"/>
</g>
<g clip-path="url(#clip32_2_1880)">
<path d="M726.306 285.59C737.008 285.59 747.271 281.338 754.838 273.769C762.405 266.2 766.656 255.934 766.656 245.23C766.656 234.526 762.405 224.261 754.838 216.692C747.271 209.123 737.008 204.871 726.306 204.871V285.59Z" fill="#F18701"/>
</g>
<g clip-path="url(#clip33_2_1880)">
<path d="M645.592 325.963C645.592 348.253 663.657 366.323 685.942 366.323C708.227 366.323 726.292 348.253 726.292 325.963C726.292 303.673 708.227 285.604 685.942 285.604C663.657 285.604 645.592 303.673 645.592 325.963Z" fill="#7678ED"/>
</g>
<g clip-path="url(#clip34_2_1880)">
<path d="M7.62939e-06 406.676C7.62939e-06 395.972 4.25116 385.706 11.8183 378.137C19.3853 370.569 29.6485 366.316 40.35 366.316H80.7V447.035H40.35C29.6485 447.035 19.3853 442.783 11.8183 435.214C4.25116 427.645 7.62939e-06 417.38 7.62939e-06 406.676Z" fill="#3D348B"/>
</g>
<g clip-path="url(#clip35_2_1880)">
<path d="M121.044 366.317C129.024 366.317 136.826 368.684 143.461 373.118C150.097 377.553 155.269 383.856 158.323 391.231C161.376 398.606 162.176 406.721 160.619 414.55C159.062 422.379 155.219 429.57 149.576 435.214C143.933 440.859 136.743 444.702 128.916 446.26C121.089 447.817 112.976 447.018 105.603 443.963C98.2297 440.908 91.9279 435.735 87.4942 429.098C83.0605 422.461 80.694 414.658 80.694 406.676L80.694 366.317H121.044Z" fill="#F7B801"/>
</g>
<g clip-path="url(#clip36_2_1880)">
<path d="M80.7 487.389C80.7 465.099 62.6347 447.029 40.35 447.029C18.0653 447.029 0 465.099 0 487.389C0 509.678 18.0653 527.748 40.35 527.748C62.6347 527.748 80.7 509.678 80.7 487.389Z" fill="#7678ED"/>
</g>
<g clip-path="url(#clip37_2_1880)">
<path d="M80.694 487.389C80.694 479.406 83.0605 471.603 87.4942 464.966C91.9279 458.329 98.2297 453.156 105.603 450.101C112.976 447.047 121.089 446.247 128.916 447.805C136.743 449.362 143.933 453.206 149.576 458.85C155.219 464.495 159.062 471.686 160.619 479.515C162.176 487.344 161.376 495.459 158.323 502.833C155.269 510.208 150.097 516.511 143.461 520.946C136.826 525.381 129.024 527.748 121.044 527.748H80.694V487.389Z" fill="#F7B801"/>
</g>
<g clip-path="url(#clip38_2_1880)">
<path d="M161.408 447.035C172.11 447.035 182.373 442.783 189.94 435.214C197.507 427.645 201.758 417.38 201.758 406.676C201.758 395.972 197.507 385.706 189.94 378.137C182.373 370.569 172.11 366.316 161.408 366.316V447.035Z" fill="#F18701"/>
</g>
<g clip-path="url(#clip39_2_1880)">
<path d="M322.796 406.676C322.796 398.694 325.162 390.89 329.596 384.253C334.03 377.616 340.332 372.443 347.705 369.389C355.078 366.334 363.191 365.535 371.018 367.092C378.845 368.649 386.035 372.493 391.678 378.138C397.321 383.782 401.164 390.973 402.721 398.802C404.278 406.631 403.478 414.746 400.424 422.121C397.37 429.495 392.199 435.799 385.563 440.233C378.928 444.668 371.126 447.035 363.146 447.035H322.796V406.676Z" fill="#F7B801"/>
</g>
<g clip-path="url(#clip40_2_1880)">
<path d="M403.51 366.317C403.51 377.021 407.761 387.286 415.328 394.855C422.895 402.424 433.158 406.676 443.86 406.676C454.561 406.676 464.825 402.424 472.392 394.855C479.959 387.286 484.21 377.021 484.21 366.317H403.51Z" fill="#F18701"/>
</g>
<g clip-path="url(#clip41_2_1880)">
<path d="M363.146 527.748C385.431 527.748 403.496 509.678 403.496 487.389C403.496 465.099 385.431 447.029 363.146 447.029C340.861 447.029 322.796 465.099 322.796 487.389C322.796 509.678 340.861 527.748 363.146 527.748Z" fill="#7678ED"/>
</g>
<g clip-path="url(#clip42_2_1880)">
<path d="M564.904 366.317C554.202 366.317 543.939 370.569 536.372 378.138C528.805 385.706 524.554 395.972 524.554 406.676C524.554 417.38 528.805 427.645 536.372 435.214C543.939 442.783 554.202 447.035 564.904 447.035V366.317Z" fill="#F18701"/>
</g>
<g clip-path="url(#clip43_2_1880)">
<path d="M605.248 366.317C615.95 366.317 626.213 370.569 633.78 378.138C641.347 385.706 645.598 395.972 645.598 406.676V447.035H564.898V406.676C564.898 395.972 569.149 385.706 576.716 378.138C584.283 370.569 594.547 366.317 605.248 366.317Z" fill="#3D348B"/>
</g>
<g clip-path="url(#clip44_2_1880)">
<path d="M726.292 406.676C726.292 384.386 708.227 366.317 685.942 366.317C663.657 366.317 645.592 384.386 645.592 406.676C645.592 428.966 663.657 447.035 685.942 447.035C708.227 447.035 726.292 428.966 726.292 406.676Z" fill="#7678ED"/>
</g>
<g clip-path="url(#clip45_2_1880)">
<path d="M726.306 366.317C726.306 377.021 730.557 387.286 738.124 394.855C745.691 402.424 755.955 406.676 766.656 406.676C777.358 406.676 787.621 402.424 795.188 394.855C802.755 387.286 807.006 377.021 807.006 366.317H726.306Z" fill="#F18701"/>
</g>
<g clip-path="url(#clip46_2_1880)">
<path d="M685.942 527.748C677.962 527.748 670.16 525.381 663.525 520.946C656.889 516.511 651.717 510.208 648.663 502.833C645.609 495.459 644.81 487.344 646.367 479.515C647.924 471.686 651.767 464.495 657.41 458.85C663.053 453.206 670.243 449.362 678.07 447.805C685.897 446.247 694.01 447.047 701.383 450.101C708.756 453.156 715.058 458.329 719.492 464.966C723.925 471.603 726.292 479.406 726.292 487.389V527.748H685.942Z" fill="#F7B801"/>
</g>
<g clip-path="url(#clip47_2_1880)">
<path d="M726.306 487.389C726.306 476.685 730.557 466.419 738.124 458.85C745.691 451.281 755.955 447.029 766.656 447.029H807.006V527.748H766.656C755.955 527.748 745.691 523.496 738.124 515.927C730.557 508.358 726.306 498.093 726.306 487.389Z" fill="#3D348B"/>
</g>
<g clip-path="url(#clip48_2_1880)">
<path d="M80.7 608.461C80.7 597.757 76.4489 587.491 68.8818 579.922C61.3147 572.353 51.0515 568.101 40.35 568.101C29.6485 568.101 19.3853 572.353 11.8182 579.922C4.25115 587.491 0 597.757 0 608.461H80.7Z" fill="#F18701"/>
</g>
<g clip-path="url(#clip49_2_1880)">
<path d="M7.62939e-06 648.834C7.62939e-06 640.852 2.36649 633.049 6.80021 626.412C11.2339 619.775 17.5357 614.602 24.9087 611.547C32.2817 608.492 40.3948 607.693 48.2219 609.25C56.049 610.808 63.2387 614.651 68.8818 620.296C74.5248 625.94 78.3678 633.131 79.9247 640.96C81.4816 648.789 80.6825 656.904 77.6285 664.279C74.5745 671.654 69.4028 677.957 62.7673 682.392C56.1317 686.826 48.3305 689.194 40.35 689.194H7.62939e-06V648.834Z" fill="#F7B801"/>
</g>
<g clip-path="url(#clip50_2_1880)">
<path d="M201.758 527.742C212.46 527.742 222.723 531.994 230.29 539.563C237.857 547.132 242.108 557.397 242.108 568.101V608.461H161.408V568.101C161.408 557.397 165.659 547.132 173.226 539.563C180.793 531.994 191.057 527.742 201.758 527.742Z" fill="#3D348B"/>
</g>
<g clip-path="url(#clip51_2_1880)">
<path d="M201.758 689.194C224.043 689.194 242.108 671.124 242.108 648.834C242.108 626.544 224.043 608.475 201.758 608.475C179.473 608.475 161.408 626.544 161.408 648.834C161.408 671.124 179.473 689.194 201.758 689.194Z" fill="#7678ED"/>
</g>
<g clip-path="url(#clip52_2_1880)">
<path d="M322.796 568.101C322.796 590.391 340.861 608.461 363.146 608.461C385.431 608.461 403.496 590.391 403.496 568.101C403.496 545.811 385.431 527.742 363.146 527.742C340.861 527.742 322.796 545.811 322.796 568.101Z" fill="#7678ED"/>
</g>
<g clip-path="url(#clip53_2_1880)">
<path d="M403.51 568.101C403.51 560.119 405.876 552.316 410.31 545.679C414.744 539.042 421.046 533.869 428.419 530.814C435.792 527.759 443.905 526.96 451.732 528.517C459.559 530.075 466.749 533.919 472.392 539.563C478.035 545.207 481.878 552.399 483.435 560.228C484.992 568.057 484.192 576.172 481.138 583.546C478.084 590.921 472.913 597.224 466.277 601.659C459.642 606.094 451.84 608.461 443.86 608.461H403.51V568.101Z" fill="#F7B801"/>
</g>
<g clip-path="url(#clip54_2_1880)">
<path d="M484.204 568.101C484.204 557.397 488.455 547.132 496.022 539.563C503.589 531.994 513.853 527.742 524.554 527.742H564.904V608.461H524.554C513.853 608.461 503.589 604.209 496.022 596.64C488.455 589.071 484.204 578.805 484.204 568.101Z" fill="#3D348B"/>
</g>
<g clip-path="url(#clip55_2_1880)">
<path d="M645.598 527.742C634.897 527.742 624.633 531.994 617.066 539.563C609.499 547.132 605.248 557.397 605.248 568.101C605.248 578.805 609.499 589.071 617.066 596.64C624.633 604.209 634.897 608.461 645.598 608.461V527.742Z" fill="#F18701"/>
</g>
<g clip-path="url(#clip56_2_1880)">
<path d="M484.204 648.834C484.204 671.124 502.269 689.194 524.554 689.194C546.839 689.194 564.904 671.124 564.904 648.834C564.904 626.544 546.839 608.475 524.554 608.475C502.269 608.475 484.204 626.544 484.204 648.834Z" fill="#7678ED"/>
</g>
<g clip-path="url(#clip57_2_1880)">
<path d="M685.942 527.742C696.643 527.742 706.907 531.994 714.474 539.563C722.041 547.132 726.292 557.397 726.292 568.101V608.461H645.592V568.101C645.592 557.397 649.843 547.132 657.41 539.563C664.977 531.994 675.241 527.742 685.942 527.742Z" fill="#3D348B"/>
</g>
<g clip-path="url(#clip58_2_1880)">
<path d="M726.292 648.834C726.292 656.816 723.925 664.62 719.492 671.257C715.058 677.894 708.756 683.067 701.383 686.121C694.01 689.176 685.897 689.975 678.07 688.418C670.243 686.861 663.053 683.017 657.41 677.373C651.767 671.728 647.924 664.537 646.367 656.708C644.81 648.879 645.609 640.764 648.663 633.389C651.717 626.015 656.889 619.711 663.525 615.277C670.16 610.842 677.962 608.475 685.942 608.475H726.292V648.834Z" fill="#F7B801"/>
</g>
<g clip-path="url(#clip59_2_1880)">
<path d="M80.7 729.547C80.7 740.251 76.4489 750.516 68.8818 758.085C61.3147 765.654 51.0515 769.906 40.35 769.906H0L0 689.187H40.35C51.0515 689.187 61.3147 693.44 68.8818 701.008C76.4489 708.577 80.7 718.843 80.7 729.547Z" fill="#3D348B"/>
</g>
<g clip-path="url(#clip60_2_1880)">
<path d="M80.694 689.187C80.694 699.891 84.9451 710.157 92.5122 717.726C100.079 725.295 110.342 729.547 121.044 729.547C131.745 729.547 142.009 725.295 149.576 717.726C157.143 710.157 161.394 699.891 161.394 689.187H80.694Z" fill="#F18701"/>
</g>
<g clip-path="url(#clip61_2_1880)">
<path d="M80.7 810.26C80.7 787.97 62.6347 769.9 40.35 769.9C18.0653 769.9 0 787.97 0 810.26C0 832.549 18.0653 850.619 40.35 850.619C62.6347 850.619 80.7 832.549 80.7 810.26Z" fill="#7678ED"/>
</g>
<g clip-path="url(#clip62_2_1880)">
<path d="M161.408 689.187C161.408 699.891 165.659 710.157 173.226 717.726C180.793 725.295 191.057 729.547 201.758 729.547C212.46 729.547 222.723 725.295 230.29 717.726C237.857 710.157 242.108 699.891 242.108 689.187H161.408Z" fill="#F18701"/>
</g>
<g clip-path="url(#clip63_2_1880)">
<path d="M242.102 729.547C242.102 718.843 246.353 708.577 253.92 701.008C261.487 693.44 271.751 689.187 282.452 689.187H322.802V769.906H282.452C271.751 769.906 261.487 765.654 253.92 758.085C246.353 750.516 242.102 740.251 242.102 729.547Z" fill="#3D348B"/>
</g>
<g clip-path="url(#clip64_2_1880)">
<path d="M322.796 689.187C322.796 699.891 327.047 710.157 334.614 717.726C342.181 725.295 352.444 729.547 363.146 729.547C373.847 729.547 384.111 725.295 391.678 717.726C399.245 710.157 403.496 699.891 403.496 689.187H322.796Z" fill="#F18701"/>
</g>
<g clip-path="url(#clip65_2_1880)">
<path d="M403.51 769.906C414.211 769.906 424.475 765.654 432.042 758.085C439.609 750.516 443.86 740.251 443.86 729.547C443.86 718.843 439.609 708.577 432.042 701.008C424.475 693.44 414.211 689.187 403.51 689.187V769.906Z" fill="#F18701"/>
</g>
<g clip-path="url(#clip66_2_1880)">
<path d="M363.146 769.9C340.861 769.9 322.796 787.97 322.796 810.26C322.796 832.549 340.861 850.619 363.146 850.619C385.431 850.619 403.496 832.549 403.496 810.26C403.496 787.97 385.431 769.9 363.146 769.9Z" fill="#7678ED"/>
</g>
<g clip-path="url(#clip67_2_1880)">
<path d="M484.204 769.906C494.906 769.906 505.169 765.654 512.736 758.085C520.303 750.516 524.554 740.251 524.554 729.547C524.554 718.843 520.303 708.577 512.736 701.008C505.169 693.44 494.906 689.187 484.204 689.187V769.906Z" fill="#F18701"/>
</g>
<g clip-path="url(#clip68_2_1880)">
<path d="M605.248 769.906C594.547 769.906 584.283 765.654 576.716 758.085C569.149 750.516 564.898 740.251 564.898 729.547V689.187H645.598V729.547C645.598 740.251 641.347 750.516 633.78 758.085C626.213 765.654 615.949 769.906 605.248 769.906Z" fill="#3D348B"/>
</g>
<g clip-path="url(#clip69_2_1880)">
<path d="M807.006 729.547C807.006 740.251 802.755 750.516 795.188 758.085C787.621 765.654 777.358 769.906 766.656 769.906H726.306V689.187H766.656C777.358 689.187 787.621 693.44 795.188 701.008C802.755 708.577 807.006 718.843 807.006 729.547Z" fill="#3D348B"/>
</g>
<g clip-path="url(#clip70_2_1880)">
<path d="M161.394 850.633C150.693 850.633 140.429 854.885 132.862 862.454C125.295 870.023 121.044 880.288 121.044 890.992C121.044 901.696 125.295 911.962 132.862 919.531C140.429 927.1 150.693 931.352 161.394 931.352V850.633Z" fill="#F18701"/>
</g>
<g clip-path="url(#clip71_2_1880)">
<path d="M80.7 971.705C80.7 949.415 62.6347 931.346 40.35 931.346C18.0653 931.346 0 949.415 0 971.705C0 993.995 18.0653 1012.06 40.35 1012.06C62.6347 1012.06 80.7 993.995 80.7 971.705Z" fill="#7678ED"/>
</g>
<g clip-path="url(#clip72_2_1880)">
<path d="M161.394 971.705C161.394 982.409 157.143 992.675 149.576 1000.24C142.009 1007.81 131.745 1012.06 121.044 1012.06H80.694L80.694 931.346H121.044C131.745 931.346 142.009 935.598 149.576 943.167C157.143 950.736 161.394 961.001 161.394 971.705Z" fill="#3D348B"/>
</g>
<g clip-path="url(#clip73_2_1880)">
<path d="M242.108 850.633C231.407 850.633 221.143 854.885 213.576 862.454C206.009 870.023 201.758 880.288 201.758 890.992C201.758 901.696 206.009 911.962 213.576 919.531C221.143 927.1 231.407 931.352 242.108 931.352V850.633Z" fill="#F18701"/>
</g>
<g clip-path="url(#clip74_2_1880)">
<path d="M322.796 890.992C322.796 883.01 325.162 875.207 329.596 868.57C334.03 861.933 340.332 856.76 347.705 853.705C355.078 850.65 363.191 849.851 371.018 851.409C378.845 852.966 386.035 856.81 391.678 862.454C397.321 868.098 401.164 875.29 402.721 883.119C404.278 890.948 403.478 899.063 400.424 906.437C397.37 913.812 392.199 920.115 385.563 924.55C378.928 928.985 371.126 931.352 363.146 931.352H322.796V890.992Z" fill="#F7B801"/>
</g>
<g clip-path="url(#clip75_2_1880)">
<path d="M403.51 931.352C414.211 931.352 424.475 927.1 432.042 919.531C439.609 911.962 443.86 901.696 443.86 890.992C443.86 880.288 439.609 870.023 432.042 862.454C424.475 854.885 414.211 850.633 403.51 850.633V931.352Z" fill="#F18701"/>
</g>
<g clip-path="url(#clip76_2_1880)">
<path d="M403.496 971.705C403.496 982.409 399.245 992.675 391.678 1000.24C384.111 1007.81 373.847 1012.06 363.146 1012.06H322.796V931.346H363.146C373.847 931.346 384.111 935.598 391.678 943.167C399.245 950.736 403.496 961.001 403.496 971.705Z" fill="#3D348B"/>
</g>
<g clip-path="url(#clip77_2_1880)">
<path d="M403.51 971.705C403.51 961.001 407.761 950.736 415.328 943.167C422.895 935.598 433.158 931.346 443.86 931.346H484.21V1012.06H443.86C433.158 1012.06 422.895 1007.81 415.328 1000.24C407.761 992.675 403.51 982.409 403.51 971.705Z" fill="#3D348B"/>
</g>
<g clip-path="url(#clip78_2_1880)">
<path d="M524.554 850.633C535.255 850.633 545.519 854.885 553.086 862.454C560.653 870.023 564.904 880.288 564.904 890.992V931.352H484.204V890.992C484.204 880.288 488.455 870.023 496.022 862.454C503.589 854.885 513.853 850.633 524.554 850.633Z" fill="#3D348B"/>
</g>
<g clip-path="url(#clip79_2_1880)">
<path d="M605.248 931.352C597.268 931.352 589.466 928.985 582.831 924.55C576.195 920.115 571.023 913.812 567.969 906.437C564.915 899.063 564.116 890.948 565.673 883.119C567.23 875.29 571.073 868.098 576.716 862.454C582.359 856.81 589.549 852.966 597.376 851.409C605.203 849.851 613.316 850.65 620.689 853.705C628.062 856.76 634.364 861.933 638.798 868.57C643.232 875.207 645.598 883.01 645.598 890.992V931.352H605.248Z" fill="#F7B801"/>
</g>
<g clip-path="url(#clip80_2_1880)">
<path d="M524.554 931.346C532.534 931.346 540.336 933.713 546.971 938.148C553.607 942.582 558.779 948.886 561.833 956.26C564.887 963.635 565.686 971.75 564.129 979.579C562.572 987.408 558.729 994.599 553.086 1000.24C547.443 1005.89 540.253 1009.73 532.426 1011.29C524.599 1012.85 516.486 1012.05 509.113 1008.99C501.74 1005.94 495.438 1000.76 491.004 994.128C486.57 987.491 484.204 979.687 484.204 971.705V931.346H524.554Z" fill="#F7B801"/>
</g>
<g clip-path="url(#clip81_2_1880)">
<path d="M605.248 931.346C615.95 931.346 626.213 935.598 633.78 943.167C641.347 950.736 645.598 961.001 645.598 971.705V1012.06H564.898V971.705C564.898 961.001 569.149 950.736 576.716 943.167C584.283 935.598 594.547 931.346 605.248 931.346Z" fill="#3D348B"/>
</g>
<g clip-path="url(#clip82_2_1880)">
<path d="M645.592 890.992C645.592 880.288 649.843 870.023 657.41 862.454C664.977 854.885 675.241 850.633 685.942 850.633H726.292V931.352H685.942C675.241 931.352 664.977 927.1 657.41 919.531C649.843 911.962 645.592 901.696 645.592 890.992Z" fill="#3D348B"/>
</g>
<g clip-path="url(#clip83_2_1880)">
<path d="M807.006 931.352C807.006 920.648 802.755 910.382 795.188 902.813C787.621 895.245 777.358 890.992 766.656 890.992C755.955 890.992 745.691 895.245 738.124 902.813C730.557 910.382 726.306 920.648 726.306 931.352H807.006Z" fill="#F18701"/>
</g>
<g clip-path="url(#clip84_2_1880)">
<path d="M726.292 971.705C726.292 982.409 722.041 992.675 714.474 1000.24C706.907 1007.81 696.643 1012.06 685.942 1012.06H645.592V931.346H685.942C696.643 931.346 706.907 935.598 714.474 943.167C722.041 950.736 726.292 961.001 726.292 971.705Z" fill="#3D348B"/>
</g>
<g clip-path="url(#clip85_2_1880)">
<path d="M161.408 1052.42C161.408 1041.71 165.659 1031.45 173.226 1023.88C180.793 1016.31 191.057 1012.06 201.758 1012.06H242.108V1092.78H201.758C191.057 1092.78 180.793 1088.53 173.226 1080.96C165.659 1073.39 161.408 1063.12 161.408 1052.42Z" fill="#3D348B"/>
</g>
<g clip-path="url(#clip86_2_1880)">
<path d="M363.146 1092.78C352.445 1092.78 342.181 1088.53 334.614 1080.96C327.047 1073.39 322.796 1063.12 322.796 1052.42V1012.06H403.496V1052.42C403.496 1063.12 399.245 1073.39 391.678 1080.96C384.111 1088.53 373.847 1092.78 363.146 1092.78Z" fill="#3D348B"/>
</g>
<g clip-path="url(#clip87_2_1880)">
<path d="M443.86 1012.06C454.561 1012.06 464.825 1016.31 472.392 1023.88C479.959 1031.45 484.21 1041.71 484.21 1052.42V1092.78H403.51V1052.42C403.51 1041.71 407.761 1031.45 415.328 1023.88C422.895 1016.31 433.158 1012.06 443.86 1012.06Z" fill="#3D348B"/>
</g>
<g clip-path="url(#clip88_2_1880)">
<path d="M564.904 1012.06C554.202 1012.06 543.939 1016.31 536.372 1023.88C528.805 1031.45 524.554 1041.71 524.554 1052.42C524.554 1063.12 528.805 1073.39 536.372 1080.96C543.939 1088.53 554.202 1092.78 564.904 1092.78V1012.06Z" fill="#F18701"/>
</g>
<g clip-path="url(#clip89_2_1880)">
<path d="M645.598 1092.78C645.598 1082.07 641.347 1071.81 633.78 1064.24C626.213 1056.67 615.949 1052.42 605.248 1052.42C594.547 1052.42 584.283 1056.67 576.716 1064.24C569.149 1071.81 564.898 1082.07 564.898 1092.78H645.598Z" fill="#F18701"/>
</g>
<g clip-path="url(#clip90_2_1880)">
<path d="M685.942 1012.06C696.643 1012.06 706.907 1016.31 714.474 1023.88C722.041 1031.45 726.292 1041.71 726.292 1052.42V1092.78H645.592V1052.42C645.592 1041.71 649.843 1031.45 657.41 1023.88C664.977 1016.31 675.241 1012.06 685.942 1012.06Z" fill="#3D348B"/>
</g>
</g>
<defs>
<clipPath id="clip0_2_1880">
<rect width="807" height="1435" fill="white" transform="translate(0 -118)"/>
</clipPath>
<clipPath id="clip1_2_1880">
<rect width="80.7" height="80.7188" fill="white" transform="translate(0 -37.2872)"/>
</clipPath>
<clipPath id="clip2_2_1880">
<rect width="80.7" height="80.7188" fill="white" transform="translate(80.694 -37.2872)"/>
</clipPath>
<clipPath id="clip3_2_1880">
<rect width="80.7188" height="80.7" fill="white" transform="matrix(0 1 -1 0 242.108 -37.2872)"/>
</clipPath>
<clipPath id="clip4_2_1880">
<rect width="80.7" height="80.7188" fill="white" transform="translate(322.796 -37.2872)"/>
</clipPath>
<clipPath id="clip5_2_1880">
<rect width="80.7188" height="80.7" fill="white" transform="matrix(0 -1 1 0 564.898 43.4315)"/>
</clipPath>
<clipPath id="clip6_2_1880">
<rect width="80.7188" height="80.7" fill="white" transform="matrix(0 1 -1 0 726.292 -37.2872)"/>
</clipPath>
<clipPath id="clip7_2_1880">
<rect width="80.7" height="80.7188" fill="white" transform="translate(726.306 -37.2872)"/>
</clipPath>
<clipPath id="clip8_2_1880">
<rect width="80.7188" height="80.7" fill="white" transform="matrix(0 -1 1 0 0 124.164)"/>
</clipPath>
<clipPath id="clip9_2_1880">
<rect width="80.7188" height="80.7" fill="white" transform="matrix(0 1 -1 0 161.394 43.4455)"/>
</clipPath>
<clipPath id="clip10_2_1880">
<rect width="80.7188" height="80.7" fill="white" transform="matrix(0 -1 1 0 0 204.877)"/>
</clipPath>
<clipPath id="clip11_2_1880">
<rect width="80.7188" height="80.7" fill="white" transform="matrix(0 -1 1 0 161.408 124.164)"/>
</clipPath>
<clipPath id="clip12_2_1880">
<rect width="80.7188" height="80.7" fill="white" transform="matrix(0 -1 1 0 242.102 124.164)"/>
</clipPath>
<clipPath id="clip13_2_1880">
<rect width="80.7" height="80.7188" fill="white" transform="matrix(-1 0 0 -1 403.496 124.164)"/>
</clipPath>
<clipPath id="clip14_2_1880">
<rect width="80.7188" height="80.7" fill="white" transform="matrix(0 -1 1 0 403.51 124.164)"/>
</clipPath>
<clipPath id="clip15_2_1880">
<rect width="80.7188" height="80.7" fill="white" transform="matrix(0 -1 1 0 322.796 204.877)"/>
</clipPath>
<clipPath id="clip16_2_1880">
<rect width="80.7188" height="80.7" fill="white" transform="matrix(0 1 -1 0 564.904 43.4455)"/>
</clipPath>
<clipPath id="clip17_2_1880">
<rect width="80.7188" height="80.7" fill="white" transform="matrix(0 1 -1 0 645.598 43.4455)"/>
</clipPath>
<clipPath id="clip18_2_1880">
<rect width="80.7188" height="80.7" fill="white" transform="matrix(0 -1 1 0 484.204 204.877)"/>
</clipPath>
<clipPath id="clip19_2_1880">
<rect width="80.7" height="80.7188" fill="white" transform="translate(645.592 43.4455)"/>
</clipPath>
<clipPath id="clip20_2_1880">
<rect width="80.7" height="80.7188" fill="white" transform="translate(726.306 43.4455)"/>
</clipPath>
<clipPath id="clip21_2_1880">
<rect width="80.7" height="80.7188" fill="white" transform="matrix(-1 0 0 -1 726.292 204.877)"/>
</clipPath>
<clipPath id="clip22_2_1880">
<rect width="80.7" height="80.7188" fill="white" transform="translate(726.306 124.158)"/>
</clipPath>
<clipPath id="clip23_2_1880">
<rect width="80.7188" height="80.7" fill="white" transform="matrix(0 1 -1 0 161.394 204.871)"/>
</clipPath>
<clipPath id="clip24_2_1880">
<rect width="80.7188" height="80.7" fill="white" transform="matrix(0 1 -1 0 80.7 285.604)"/>
</clipPath>
<clipPath id="clip25_2_1880">
<rect width="80.7" height="80.7188" fill="white" transform="matrix(-1 0 0 -1 242.108 366.323)"/>
</clipPath>
<clipPath id="clip26_2_1880">
<rect width="80.7188" height="80.7" fill="white" transform="matrix(0 1 -1 0 484.21 204.871)"/>
</clipPath>
<clipPath id="clip27_2_1880">
<rect width="80.7188" height="80.7" fill="white" transform="matrix(0 1 -1 0 403.496 285.604)"/>
</clipPath>
<clipPath id="clip28_2_1880">
<rect width="80.7" height="80.7188" fill="white" transform="matrix(-1 0 0 -1 564.904 285.59)"/>
</clipPath>
<clipPath id="clip29_2_1880">
<rect width="80.7" height="80.7188" fill="white" transform="matrix(-1 0 0 -1 645.598 285.59)"/>
</clipPath>
<clipPath id="clip30_2_1880">
<rect width="80.7188" height="80.7" fill="white" transform="matrix(0 -1 1 0 484.204 366.323)"/>
</clipPath>
<clipPath id="clip31_2_1880">
<rect width="80.7188" height="80.7" fill="white" transform="matrix(0 -1 1 0 645.592 285.59)"/>
</clipPath>
<clipPath id="clip32_2_1880">
<rect width="80.7188" height="80.7" fill="white" transform="matrix(0 1 -1 0 807.006 204.871)"/>
</clipPath>
<clipPath id="clip33_2_1880">
<rect width="80.7188" height="80.7" fill="white" transform="matrix(0 1 -1 0 726.292 285.604)"/>
</clipPath>
<clipPath id="clip34_2_1880">
<rect width="80.7188" height="80.7" fill="white" transform="matrix(0 1 -1 0 80.7 366.316)"/>
</clipPath>
<clipPath id="clip35_2_1880">
<rect width="80.7" height="80.7188" fill="white" transform="matrix(-1 0 0 -1 161.394 447.035)"/>
</clipPath>
<clipPath id="clip36_2_1880">
<rect width="80.7188" height="80.7" fill="white" transform="matrix(0 -1 1 0 0 527.748)"/>
</clipPath>
<clipPath id="clip37_2_1880">
<rect width="80.7188" height="80.7" fill="white" transform="matrix(0 1 -1 0 161.394 447.029)"/>
</clipPath>
<clipPath id="clip38_2_1880">
<rect width="80.7188" height="80.7" fill="white" transform="matrix(0 1 -1 0 242.108 366.316)"/>
</clipPath>
<clipPath id="clip39_2_1880">
<rect width="80.7188" height="80.7" fill="white" transform="matrix(0 1 -1 0 403.496 366.316)"/>
</clipPath>
<clipPath id="clip40_2_1880">
<rect width="80.7" height="80.7188" fill="white" transform="matrix(-1 0 0 -1 484.21 447.035)"/>
</clipPath>
<clipPath id="clip41_2_1880">
<rect width="80.7" height="80.7188" fill="white" transform="translate(322.796 447.029)"/>
</clipPath>
<clipPath id="clip42_2_1880">
<rect width="80.7188" height="80.7" fill="white" transform="matrix(0 -1 1 0 484.204 447.035)"/>
</clipPath>
<clipPath id="clip43_2_1880">
<rect width="80.7" height="80.7188" fill="white" transform="matrix(-1 0 0 -1 645.598 447.035)"/>
</clipPath>
<clipPath id="clip44_2_1880">
<rect width="80.7188" height="80.7" fill="white" transform="matrix(0 -1 1 0 645.592 447.035)"/>
</clipPath>
<clipPath id="clip45_2_1880">
<rect width="80.7" height="80.7188" fill="white" transform="matrix(-1 0 0 -1 807.006 447.035)"/>
</clipPath>
<clipPath id="clip46_2_1880">
<rect width="80.7" height="80.7188" fill="white" transform="translate(645.592 447.029)"/>
</clipPath>
<clipPath id="clip47_2_1880">
<rect width="80.7188" height="80.7" fill="white" transform="matrix(0 1 -1 0 807.006 447.029)"/>
</clipPath>
<clipPath id="clip48_2_1880">
<rect width="80.7" height="80.7188" fill="white" transform="translate(0 527.742)"/>
</clipPath>
<clipPath id="clip49_2_1880">
<rect width="80.7188" height="80.7" fill="white" transform="matrix(0 1 -1 0 80.7 608.475)"/>
</clipPath>
<clipPath id="clip50_2_1880">
<rect width="80.7" height="80.7188" fill="white" transform="matrix(-1 0 0 -1 242.108 608.461)"/>
</clipPath>
<clipPath id="clip51_2_1880">
<rect width="80.7" height="80.7188" fill="white" transform="translate(161.408 608.475)"/>
</clipPath>
<clipPath id="clip52_2_1880">
<rect width="80.7188" height="80.7" fill="white" transform="matrix(0 1 -1 0 403.496 527.742)"/>
</clipPath>
<clipPath id="clip53_2_1880">
<rect width="80.7188" height="80.7" fill="white" transform="matrix(0 1 -1 0 484.21 527.742)"/>
</clipPath>
<clipPath id="clip54_2_1880">
<rect width="80.7188" height="80.7" fill="white" transform="matrix(0 1 -1 0 564.904 527.742)"/>
</clipPath>
<clipPath id="clip55_2_1880">
<rect width="80.7188" height="80.7" fill="white" transform="matrix(0 -1 1 0 564.898 608.461)"/>
</clipPath>
<clipPath id="clip56_2_1880">
<rect width="80.7188" height="80.7" fill="white" transform="matrix(0 1 -1 0 564.904 608.475)"/>
</clipPath>
<clipPath id="clip57_2_1880">
<rect width="80.7" height="80.7188" fill="white" transform="matrix(-1 0 0 -1 726.292 608.461)"/>
</clipPath>
<clipPath id="clip58_2_1880">
<rect width="80.7188" height="80.7" fill="white" transform="matrix(0 -1 1 0 645.592 689.194)"/>
</clipPath>
<clipPath id="clip59_2_1880">
<rect width="80.7188" height="80.7" fill="white" transform="matrix(0 -1 1 0 0 769.906)"/>
</clipPath>
<clipPath id="clip60_2_1880">
<rect width="80.7" height="80.7188" fill="white" transform="matrix(-1 0 0 -1 161.394 769.906)"/>
</clipPath>
<clipPath id="clip61_2_1880">
<rect width="80.7188" height="80.7" fill="white" transform="matrix(0 -1 1 0 0 850.619)"/>
</clipPath>
<clipPath id="clip62_2_1880">
<rect width="80.7" height="80.7188" fill="white" transform="matrix(-1 0 0 -1 242.108 769.906)"/>
</clipPath>
<clipPath id="clip63_2_1880">
<rect width="80.7188" height="80.7" fill="white" transform="matrix(0 1 -1 0 322.802 689.187)"/>
</clipPath>
<clipPath id="clip64_2_1880">
<rect width="80.7" height="80.7188" fill="white" transform="matrix(-1 0 0 -1 403.496 769.906)"/>
</clipPath>
<clipPath id="clip65_2_1880">
<rect width="80.7188" height="80.7" fill="white" transform="matrix(0 1 -1 0 484.21 689.187)"/>
</clipPath>
<clipPath id="clip66_2_1880">
<rect width="80.7" height="80.7188" fill="white" transform="matrix(-1 0 0 -1 403.496 850.619)"/>
</clipPath>
<clipPath id="clip67_2_1880">
<rect width="80.7188" height="80.7" fill="white" transform="matrix(0 1 -1 0 564.904 689.187)"/>
</clipPath>
<clipPath id="clip68_2_1880">
<rect width="80.7" height="80.7188" fill="white" transform="translate(564.898 689.187)"/>
</clipPath>
<clipPath id="clip69_2_1880">
<rect width="80.7188" height="80.7" fill="white" transform="matrix(0 -1 1 0 726.306 769.906)"/>
</clipPath>
<clipPath id="clip70_2_1880">
<rect width="80.7188" height="80.7" fill="white" transform="matrix(0 -1 1 0 80.694 931.352)"/>
</clipPath>
<clipPath id="clip71_2_1880">
<rect width="80.7188" height="80.7" fill="white" transform="matrix(0 -1 1 0 0 1012.06)"/>
</clipPath>
<clipPath id="clip72_2_1880">
<rect width="80.7188" height="80.7" fill="white" transform="matrix(0 -1 1 0 80.694 1012.06)"/>
</clipPath>
<clipPath id="clip73_2_1880">
<rect width="80.7188" height="80.7" fill="white" transform="matrix(0 -1 1 0 161.408 931.352)"/>
</clipPath>
<clipPath id="clip74_2_1880">
<rect width="80.7188" height="80.7" fill="white" transform="matrix(0 1 -1 0 403.496 850.633)"/>
</clipPath>
<clipPath id="clip75_2_1880">
<rect width="80.7188" height="80.7" fill="white" transform="matrix(0 1 -1 0 484.21 850.633)"/>
</clipPath>
<clipPath id="clip76_2_1880">
<rect width="80.7188" height="80.7" fill="white" transform="matrix(0 -1 1 0 322.796 1012.06)"/>
</clipPath>
<clipPath id="clip77_2_1880">
<rect width="80.7188" height="80.7" fill="white" transform="matrix(0 1 -1 0 484.21 931.346)"/>
</clipPath>
<clipPath id="clip78_2_1880">
<rect width="80.7" height="80.7188" fill="white" transform="matrix(-1 0 0 -1 564.904 931.352)"/>
</clipPath>
<clipPath id="clip79_2_1880">
<rect width="80.7" height="80.7188" fill="white" transform="translate(564.898 850.633)"/>
</clipPath>
<clipPath id="clip80_2_1880">
<rect width="80.7" height="80.7188" fill="white" transform="matrix(-1 0 0 -1 564.904 1012.06)"/>
</clipPath>
<clipPath id="clip81_2_1880">
<rect width="80.7" height="80.7188" fill="white" transform="matrix(-1 0 0 -1 645.598 1012.06)"/>
</clipPath>
<clipPath id="clip82_2_1880">
<rect width="80.7188" height="80.7" fill="white" transform="matrix(0 1 -1 0 726.292 850.633)"/>
</clipPath>
<clipPath id="clip83_2_1880">
<rect width="80.7" height="80.7188" fill="white" transform="translate(726.306 850.633)"/>
</clipPath>
<clipPath id="clip84_2_1880">
<rect width="80.7188" height="80.7" fill="white" transform="matrix(0 -1 1 0 645.592 1012.06)"/>
</clipPath>
<clipPath id="clip85_2_1880">
<rect width="80.7188" height="80.7" fill="white" transform="matrix(0 1 -1 0 242.108 1012.06)"/>
</clipPath>
<clipPath id="clip86_2_1880">
<rect width="80.7" height="80.7188" fill="white" transform="translate(322.796 1012.06)"/>
</clipPath>
<clipPath id="clip87_2_1880">
<rect width="80.7" height="80.7188" fill="white" transform="matrix(-1 0 0 -1 484.21 1092.78)"/>
</clipPath>
<clipPath id="clip88_2_1880">
<rect width="80.7188" height="80.7" fill="white" transform="matrix(0 -1 1 0 484.204 1092.78)"/>
</clipPath>
<clipPath id="clip89_2_1880">
<rect width="80.7" height="80.7188" fill="white" transform="translate(564.898 1012.06)"/>
</clipPath>
<clipPath id="clip90_2_1880">
<rect width="80.7" height="80.7188" fill="white" transform="matrix(-1 0 0 -1 726.292 1092.78)"/>
</clipPath>
</defs>
</svg>
